<?xml version="1.0" encoding="UTF-8" standalone="no"?>
<!DOCTYPE svg PUBLIC "-//W3C//DTD SVG 1.1//EN"
 "http://www.w3.org/Graphics/SVG/1.1/DTD/svg11.dtd">
<!-- Generated by graphviz version 14.1.3 (20260303.0454)
 -->
<!-- Title: G Pages: 1 -->
<svg width="1231pt" height="378pt"
 viewBox="0.00 0.00 1231.00 378.00" xmlns="http://www.w3.org/2000/svg" xmlns:xlink="http://www.w3.org/1999/xlink">
<g id="graph0" class="graph" transform="scale(1 1) rotate(0) translate(4 374.25)">
<title>G</title><style>.edge>path:hover{stroke-width:8}</style>
<polygon fill="white" stroke="none" points="-4,4 -4,-374.25 1227.02,-374.25 1227.02,4 -4,4"/>
<!-- alarm_data_json_mapper -->
<g id="node1" class="node">
<title>alarm_data_json_mapper</title><style>.edge>path:hover{stroke-width:8}</style>
<ellipse fill="#a44646" stroke="black" cx="452.02" cy="-136.25" rx="75.02" ry="18"/>
<text xml:space="preserve" text-anchor="middle" x="452.02" y="-132.75" font-family="Helvetica,sans-Serif" font-size="10.00" fill="#ffffff">alarm_data_json_mapper</text>
</g>
<!-- alarm_manager_temp_py -->
<g id="node6" class="node">
<title>alarm_manager_temp_py</title><style>.edge>path:hover{stroke-width:8}</style>
<ellipse fill="#406335" stroke="black" cx="667.02" cy="-22.63" rx="79.73" ry="22.63"/>
<text xml:space="preserve" text-anchor="middle" x="667.02" y="-25.13" font-family="Helvetica,sans-Serif" font-size="10.00" fill="#ffffff">alarm_manager_temp.</text>
<text xml:space="preserve" text-anchor="middle" x="667.02" y="-13.13" font-family="Helvetica,sans-Serif" font-size="10.00" fill="#ffffff">py</text>
</g>
<!-- alarm_data_json_mapper&#45;&gt;alarm_manager_temp_py -->
<g id="edge1" class="edge">
<title>alarm_data_json_mapper&#45;&gt;alarm_manager_temp_py</title><style>.edge>path:hover{stroke-width:8}</style>
<path fill="none" stroke="black" d="M507.58,-123.76C570.09,-110.5 663.46,-89.59 667.02,-82.25"/>
</g>
<!-- alarm_internal_model -->
<g id="node2" class="node">
<title>alarm_internal_model</title><style>.edge>path:hover{stroke-width:8}</style>
<ellipse fill="#dd5d18" stroke="black" cx="401.02" cy="-208.25" rx="65.09" ry="18"/>
<text xml:space="preserve" text-anchor="middle" x="401.02" y="-204.75" font-family="Helvetica,sans-Serif" font-size="10.00" fill="#ffffff">alarm_internal_model</text>
</g>
<!-- alarm_internal_model&#45;&gt;alarm_data_json_mapper -->
<g id="edge2" class="edge">
<title>alarm_internal_model&#45;&gt;alarm_data_json_mapper</title><style>.edge>path:hover{stroke-width:8}</style>
<path fill="none" stroke="black" d="M413.37,-190.31C419.32,-182.14 426.59,-172.17 433.21,-163.08"/>
<polygon fill="#dd5d18" stroke="black" points="435.84,-165.41 438.9,-155.27 430.18,-161.29 435.84,-165.41"/>
</g>
<!-- alarm_internal_model&#45;&gt;alarm_manager_temp_py -->
<g id="edge3" class="edge">
<title>alarm_internal_model&#45;&gt;alarm_manager_temp_py</title><style>.edge>path:hover{stroke-width:8}</style>
<path fill="none" stroke="black" d="M445.31,-194.65C472.69,-185.72 507.87,-172.15 536.02,-154.25 555.65,-141.77 554.36,-130.69 574.02,-118.25 611.48,-94.57 647.67,-122.13 667.02,-82.25"/>
</g>
<!-- alarm_repeat_datetime_checker -->
<g id="node8" class="node">
<title>alarm_repeat_datetime_checker</title><style>.edge>path:hover{stroke-width:8}</style>
<ellipse fill="#49ac77" stroke="black" cx="266.02" cy="-136.25" rx="93.06" ry="18"/>
<text xml:space="preserve" text-anchor="middle" x="266.02" y="-132.75" font-family="Helvetica,sans-Serif" font-size="10.00" fill="#000000">alarm_repeat_datetime_checker</text>
</g>
<!-- alarm_internal_model&#45;&gt;alarm_repeat_datetime_checker -->
<g id="edge4" class="edge">
<title>alarm_internal_model&#45;&gt;alarm_repeat_datetime_checker</title><style>.edge>path:hover{stroke-width:8}</style>
<path fill="none" stroke="black" d="M371.39,-191.89C352.67,-182.18 328.2,-169.49 307.55,-158.79"/>
<polygon fill="#dd5d18" stroke="black" points="309.29,-155.75 298.8,-154.25 306.07,-161.96 309.29,-155.75"/>
</g>
<!-- alarm_scheduler -->
<g id="node9" class="node">
<title>alarm_scheduler</title><style>.edge>path:hover{stroke-width:8}</style>
<ellipse fill="#46a494" stroke="black" cx="102.02" cy="-136.25" rx="52.47" ry="18"/>
<text xml:space="preserve" text-anchor="middle" x="102.02" y="-132.75" font-family="Helvetica,sans-Serif" font-size="10.00" fill="#000000">alarm_scheduler</text>
</g>
<!-- alarm_internal_model&#45;&gt;alarm_scheduler -->
<g id="edge5" class="edge">
<title>alarm_internal_model&#45;&gt;alarm_scheduler</title><style>.edge>path:hover{stroke-width:8}</style>
<path fill="none" stroke="black" d="M352.07,-195.95C343.72,-194.04 335.12,-192.08 327.02,-190.25 254.64,-173.95 236.04,-172.07 164.02,-154.25 160.28,-153.33 156.42,-152.34 152.54,-151.33"/>
<polygon fill="#dd5d18" stroke="black" points="153.66,-148.01 143.1,-148.82 151.86,-154.77 153.66,-148.01"/>
</g>
<!-- alarm_ui_mapper -->
<g id="node12" class="node">
<title>alarm_ui_mapper</title><style>.edge>path:hover{stroke-width:8}</style>
<ellipse fill="#4651a4" stroke="black" cx="787.02" cy="-136.25" rx="54.27" ry="18"/>
<text xml:space="preserve" text-anchor="middle" x="787.02" y="-132.75" font-family="Helvetica,sans-Serif" font-size="10.00" fill="#ffffff">alarm_ui_mapper</text>
</g>
<!-- alarm_internal_model&#45;&gt;alarm_ui_mapper -->
<g id="edge6" class="edge">
<title>alarm_internal_model&#45;&gt;alarm_ui_mapper</title><style>.edge>path:hover{stroke-width:8}</style>
<path fill="none" stroke="black" d="M456.71,-198.52C534.05,-186.3 669.98,-164.46 719.02,-154.25 723.98,-153.22 729.12,-152.08 734.26,-150.88"/>
<polygon fill="#dd5d18" stroke="black" points="735.04,-154.29 743.95,-148.56 733.41,-147.49 735.04,-154.29"/>
</g>
<!-- alarm_irregular_logger -->
<g id="node3" class="node">
<title>alarm_irregular_logger</title><style>.edge>path:hover{stroke-width:8}</style>
<ellipse fill="#dba82f" stroke="black" cx="251.02" cy="-208.25" rx="66.9" ry="18"/>
<text xml:space="preserve" text-anchor="middle" x="251.02" y="-204.75" font-family="Helvetica,sans-Serif" font-size="10.00" fill="#000000">alarm_irregular_logger</text>
</g>
<!-- alarm_irregular_logger&#45;&gt;alarm_data_json_mapper -->
<g id="edge7" class="edge">
<title>alarm_irregular_logger&#45;&gt;alarm_data_json_mapper</title><style>.edge>path:hover{stroke-width:8}</style>
<path fill="none" stroke="black" d="M290.73,-193.43C322.01,-182.53 365.88,-167.25 399.97,-155.38"/>
<polygon fill="#dba82f" stroke="black" points="400.94,-158.75 409.24,-152.16 398.64,-152.14 400.94,-158.75"/>
</g>
<!-- alarm_irregular_logger&#45;&gt;alarm_manager_temp_py -->
<g id="edge8" class="edge">
<title>alarm_irregular_logger&#45;&gt;alarm_manager_temp_py</title><style>.edge>path:hover{stroke-width:8}</style>
<path fill="none" stroke="black" d="M200.88,-195.93C143.37,-182.73 55.15,-161.77 41.02,-154.25 31.02,-148.94 18.99,-148.17 22.02,-137.25"/>
</g>
<!-- alarm_irregular_logger&#45;&gt;alarm_repeat_datetime_checker -->
<g id="edge9" class="edge">
<title>alarm_irregular_logger&#45;&gt;alarm_repeat_datetime_checker</title><style>.edge>path:hover{stroke-width:8}</style>
<path fill="none" stroke="black" d="M254.73,-189.95C256.31,-182.58 258.19,-173.78 259.97,-165.51"/>
<polygon fill="#dba82f" stroke="black" points="263.37,-166.35 262.04,-155.84 256.52,-164.88 263.37,-166.35"/>
</g>
<!-- alarm_irregular_logger&#45;&gt;alarm_scheduler -->
<g id="edge10" class="edge">
<title>alarm_irregular_logger&#45;&gt;alarm_scheduler</title><style>.edge>path:hover{stroke-width:8}</style>
<path fill="none" stroke="black" d="M218.69,-192.07C196.25,-181.52 166.2,-167.4 142.21,-156.14"/>
<polygon fill="#dba82f" stroke="black" points="143.92,-153.07 133.38,-151.99 140.94,-159.41 143.92,-153.07"/>
</g>
<!-- alarm_json_model -->
<g id="node4" class="node">
<title>alarm_json_model</title><style>.edge>path:hover{stroke-width:8}</style>
<ellipse fill="#c3cc33" stroke="black" cx="579.02" cy="-208.25" rx="56.98" ry="18"/>
<text xml:space="preserve" text-anchor="middle" x="579.02" y="-204.75" font-family="Helvetica,sans-Serif" font-size="10.00" fill="#000000">alarm_json_model</text>
</g>
<!-- alarm_json_model&#45;&gt;alarm_data_json_mapper -->
<g id="edge11" class="edge">
<title>alarm_json_model&#45;&gt;alarm_data_json_mapper</title><style>.edge>path:hover{stroke-width:8}</style>
<path fill="none" stroke="black" d="M551.46,-192.07C533.7,-182.27 510.33,-169.39 490.71,-158.58"/>
<polygon fill="#c3cc33" stroke="black" points="492.62,-155.64 482.17,-153.87 489.24,-161.77 492.62,-155.64"/>
</g>
<!-- alarm_json_model&#45;&gt;alarm_manager_temp_py -->
<g id="edge12" class="edge">
<title>alarm_json_model&#45;&gt;alarm_manager_temp_py</title><style>.edge>path:hover{stroke-width:8}</style>
<path fill="none" stroke="black" d="M705.02,-135.25C706.61,-106.31 654.37,-108.33 667.02,-82.25"/>
<path fill="none" stroke="black" d="M616.38,-194.31C653.13,-180.43 703.9,-157.62 705.02,-137.25"/>
</g>
<!-- alarm_storage -->
<g id="node10" class="node">
<title>alarm_storage</title><style>.edge>path:hover{stroke-width:8}</style>
<ellipse fill="#499aac" stroke="black" cx="630.02" cy="-136.25" rx="46.6" ry="18"/>
<text xml:space="preserve" text-anchor="middle" x="630.02" y="-132.75" font-family="Helvetica,sans-Serif" font-size="10.00" fill="#000000">alarm_storage</text>
</g>
<!-- alarm_json_model&#45;&gt;alarm_storage -->
<g id="edge13" class="edge">
<title>alarm_json_model&#45;&gt;alarm_storage</title><style>.edge>path:hover{stroke-width:8}</style>
<path fill="none" stroke="black" d="M591.37,-190.31C597.32,-182.14 604.59,-172.17 611.21,-163.08"/>
<polygon fill="#c3cc33" stroke="black" points="613.84,-165.41 616.9,-155.27 608.18,-161.29 613.84,-165.41"/>
</g>
<!-- alarm_manager_cycle_controll_options -->
<g id="node5" class="node">
<title>alarm_manager_cycle_controll_options</title><style>.edge>path:hover{stroke-width:8}</style>
<ellipse fill="#8db653" stroke="black" cx="1008.02" cy="-136.25" rx="111.1" ry="18"/>
<text xml:space="preserve" text-anchor="middle" x="1008.02" y="-132.75" font-family="Helvetica,sans-Serif" font-size="10.00" fill="#000000">alarm_manager_cycle_controll_options</text>
</g>
<!-- alarm_manager_cycle_controll_options&#45;&gt;alarm_manager_temp_py -->
<g id="edge14" class="edge">
<title>alarm_manager_cycle_controll_options&#45;&gt;alarm_manager_temp_py</title><style>.edge>path:hover{stroke-width:8}</style>
<path fill="none" stroke="black" d="M926.78,-123.58C825.47,-108.89 665.59,-85.2 667.02,-82.25"/>
</g>
<!-- alarm_player -->
<g id="node7" class="node">
<title>alarm_player</title><style>.edge>path:hover{stroke-width:8}</style>
<ellipse fill="#4cb358" stroke="black" cx="1180.02" cy="-136.25" rx="43" ry="18"/>
<text xml:space="preserve" text-anchor="middle" x="1180.02" y="-132.75" font-family="Helvetica,sans-Serif" font-size="10.00" fill="#000000">alarm_player</text>
</g>
<!-- alarm_player&#45;&gt;alarm_manager_temp_py -->
<g id="edge15" class="edge">
<title>alarm_player&#45;&gt;alarm_manager_temp_py</title><style>.edge>path:hover{stroke-width:8}</style>
<path fill="none" stroke="black" d="M1148.44,-123.61C1141.77,-121.52 1134.73,-119.59 1128.02,-118.25 1077.64,-108.2 644.59,-128.48 667.02,-82.25"/>
</g>
<!-- alarm_repeat_datetime_checker&#45;&gt;alarm_manager_temp_py -->
<g id="edge16" class="edge">
<title>alarm_repeat_datetime_checker&#45;&gt;alarm_manager_temp_py</title><style>.edge>path:hover{stroke-width:8}</style>
<path fill="none" stroke="black" d="M333.71,-123.53C345.15,-121.68 356.91,-119.85 368.02,-118.25 401.14,-113.5 652.41,-112.36 667.02,-82.25"/>
</g>
<!-- alarm_scheduler&#45;&gt;alarm_manager_temp_py -->
<g id="edge17" class="edge">
<title>alarm_scheduler&#45;&gt;alarm_manager_temp_py</title><style>.edge>path:hover{stroke-width:8}</style>
<path fill="none" stroke="black" d="M140.12,-123.55C147.96,-121.49 156.21,-119.59 164.02,-118.25 219.25,-108.8 642.56,-132.67 667.02,-82.25"/>
</g>
<!-- alarm_storage&#45;&gt;alarm_manager_temp_py -->
<g id="edge18" class="edge">
<title>alarm_storage&#45;&gt;alarm_manager_temp_py</title><style>.edge>path:hover{stroke-width:8}</style>
<path fill="none" stroke="black" d="M643.46,-118.91C651.21,-108.84 660.65,-95.38 667.02,-82.25"/>
</g>
<!-- alarm_types -->
<g id="node11" class="node">
<title>alarm_types</title><style>.edge>path:hover{stroke-width:8}</style>
<ellipse fill="#5382b6" stroke="black" cx="401.02" cy="-280.25" rx="41.64" ry="18"/>
<text xml:space="preserve" text-anchor="middle" x="401.02" y="-276.75" font-family="Helvetica,sans-Serif" font-size="10.00" fill="#ffffff">alarm_types</text>
</g>
<!-- alarm_types&#45;&gt;alarm_internal_model -->
<g id="edge19" class="edge">
<title>alarm_types&#45;&gt;alarm_internal_model</title><style>.edge>path:hover{stroke-width:8}</style>
<path fill="none" stroke="black" d="M401.02,-261.95C401.02,-254.66 401.02,-245.98 401.02,-237.79"/>
<polygon fill="#5382b6" stroke="black" points="404.52,-237.87 401.02,-227.87 397.52,-237.87 404.52,-237.87"/>
</g>
<!-- alarm_ui_mapper&#45;&gt;alarm_manager_temp_py -->
<g id="edge20" class="edge">
<title>alarm_ui_mapper&#45;&gt;alarm_manager_temp_py</title><style>.edge>path:hover{stroke-width:8}</style>
<path fill="none" stroke="black" d="M743.92,-124.92C706.42,-114.73 659.19,-98.39 667.02,-82.25"/>
</g>
<!-- alarm_ui_model -->
<g id="node13" class="node">
<title>alarm_ui_model</title><style>.edge>path:hover{stroke-width:8}</style>
<ellipse fill="#5e40c0" stroke="black" cx="705.02" cy="-208.25" rx="50.66" ry="18"/>
<text xml:space="preserve" text-anchor="middle" x="705.02" y="-204.75" font-family="Helvetica,sans-Serif" font-size="10.00" fill="#ffffff">alarm_ui_model</text>
</g>
<!-- alarm_ui_model&#45;&gt;alarm_manager_temp_py -->
<g id="edge21" class="edge">
<title>alarm_ui_model&#45;&gt;alarm_manager_temp_py</title><style>.edge>path:hover{stroke-width:8}</style>
<path fill="none" stroke="black" d="M704.49,-189.98C704.19,-175.8 704.03,-155.21 705.02,-137.25"/>
</g>
<!-- alarm_ui_model&#45;&gt;alarm_ui_mapper -->
<g id="edge22" class="edge">
<title>alarm_ui_model&#45;&gt;alarm_ui_mapper</title><style>.edge>path:hover{stroke-width:8}</style>
<path fill="none" stroke="black" d="M723.63,-191.37C734.17,-182.37 747.56,-170.94 759.32,-160.9"/>
<polygon fill="#5e40c0" stroke="black" points="761.43,-163.7 766.77,-154.54 756.89,-158.38 761.43,-163.7"/>
</g>
<!-- constants -->
<g id="node14" class="node">
<title>constants</title><style>.edge>path:hover{stroke-width:8}</style>
<ellipse fill="#9219e6" stroke="black" cx="579.02" cy="-280.25" rx="35.33" ry="18"/>
<text xml:space="preserve" text-anchor="middle" x="579.02" y="-276.75" font-family="Helvetica,sans-Serif" font-size="10.00" fill="#ffffff">constants</text>
</g>
<!-- constants&#45;&gt;alarm_internal_model -->
<g id="edge23" class="edge">
<title>constants&#45;&gt;alarm_internal_model</title><style>.edge>path:hover{stroke-width:8}</style>
<path fill="none" stroke="black" d="M551.6,-268.47C523.97,-257.6 480.81,-240.63 447.76,-227.64"/>
<polygon fill="#9219e6" stroke="black" points="449.42,-224.53 438.83,-224.12 446.86,-231.04 449.42,-224.53"/>
</g>
<!-- constants&#45;&gt;alarm_json_model -->
<g id="edge24" class="edge">
<title>constants&#45;&gt;alarm_json_model</title><style>.edge>path:hover{stroke-width:8}</style>
<path fill="none" stroke="black" d="M579.02,-261.95C579.02,-254.66 579.02,-245.98 579.02,-237.79"/>
<polygon fill="#9219e6" stroke="black" points="582.52,-237.87 579.02,-227.87 575.52,-237.87 582.52,-237.87"/>
</g>
<!-- constants&#45;&gt;alarm_manager_temp_py -->
<g id="edge25" class="edge">
<title>constants&#45;&gt;alarm_manager_temp_py</title><style>.edge>path:hover{stroke-width:8}</style>
<path fill="none" stroke="black" d="M869.02,-207.25C884.95,-170.08 878.85,-146.62 850.02,-118.25 790.94,-60.11 630.83,-156.83 667.02,-82.25"/>
</g>
<!-- constants&#45;&gt;alarm_ui_mapper -->
<g id="edge26" class="edge">
<title>constants&#45;&gt;alarm_ui_mapper</title><style>.edge>path:hover{stroke-width:8}</style>
<path fill="none" stroke="black" d="M869.02,-207.25C878.7,-184.67 856.9,-166.85 833.35,-154.84"/>
<polygon fill="#9219e6" stroke="black" points="835.15,-151.81 824.61,-150.69 832.15,-158.14 835.15,-151.81"/>
<path fill="none" stroke="black" d="M614.37,-277.32C687.21,-272.4 848.87,-256.27 869.02,-209.25"/>
</g>
<!-- constants&#45;&gt;alarm_ui_model -->
<g id="edge27" class="edge">
<title>constants&#45;&gt;alarm_ui_model</title><style>.edge>path:hover{stroke-width:8}</style>
<path fill="none" stroke="black" d="M602.43,-266.25C621.02,-255.92 647.35,-241.3 668.68,-229.44"/>
<polygon fill="#9219e6" stroke="black" points="670.33,-232.53 677.37,-224.62 666.93,-226.41 670.33,-232.53"/>
</g>
<!-- cui_datetime_normalizer -->
<g id="node15" class="node">
<title>cui_datetime_normalizer</title><style>.edge>path:hover{stroke-width:8}</style>
<ellipse fill="#b053b6" stroke="black" cx="93.02" cy="-208.25" rx="73.21" ry="18"/>
<text xml:space="preserve" text-anchor="middle" x="93.02" y="-204.75" font-family="Helvetica,sans-Serif" font-size="10.00" fill="#ffffff">cui_datetime_normalizer</text>
</g>
<!-- cui_datetime_normalizer&#45;&gt;alarm_scheduler -->
<g id="edge28" class="edge">
<title>cui_datetime_normalizer&#45;&gt;alarm_scheduler</title><style>.edge>path:hover{stroke-width:8}</style>
<path fill="none" stroke="black" d="M95.25,-189.95C96.19,-182.58 97.33,-173.78 98.39,-165.51"/>
<polygon fill="#b053b6" stroke="black" points="101.83,-166.23 99.63,-155.86 94.88,-165.33 101.83,-166.23"/>
</g>
<!-- env_paths -->
<g id="node16" class="node">
<title>env_paths</title><style>.edge>path:hover{stroke-width:8}</style>
<ellipse fill="#ce3ba3" stroke="black" cx="494.02" cy="-352.25" rx="36.68" ry="18"/>
<text xml:space="preserve" text-anchor="middle" x="494.02" y="-348.75" font-family="Helvetica,sans-Serif" font-size="10.00" fill="#ffffff">env_paths</text>
</g>
<!-- env_paths&#45;&gt;alarm_manager_temp_py -->
<g id="edge29" class="edge">
<title>env_paths&#45;&gt;alarm_manager_temp_py</title><style>.edge>path:hover{stroke-width:8}</style>
<path fill="none" stroke="black" d="M22.02,-135.25C25.05,-124.34 30.56,-122.6 41.02,-118.25 105.36,-91.53 636.47,-144.87 667.02,-82.25"/>
<path fill="none" stroke="black" d="M458.23,-347.56C356.05,-336.21 66.69,-298.17 11.02,-226.25 -13.38,-194.74 11.35,-175.66 22.02,-137.25"/>
<path fill="none" stroke="black" d="M667.02,-81.25C670.66,-73.8 671.94,-65.13 672.01,-56.81"/>
<polygon fill="#ce3ba3" stroke="black" points="675.51,-56.77 671.5,-46.96 668.52,-57.13 675.51,-56.77"/>
</g>
<!-- env_paths&#45;&gt;alarm_storage -->
<g id="edge30" class="edge">
<title>env_paths&#45;&gt;alarm_storage</title><style>.edge>path:hover{stroke-width:8}</style>
<path fill="none" stroke="black" d="M490.97,-334.03C486.36,-302.27 481.2,-233.76 513.02,-190.25 522.15,-177.77 555.77,-163.24 584.63,-152.56"/>
<polygon fill="#ce3ba3" stroke="black" points="585.77,-155.87 593.98,-149.18 583.39,-149.29 585.77,-155.87"/>
</g>
<!-- env_paths&#45;&gt;constants -->
<g id="edge31" class="edge">
<title>env_paths&#45;&gt;constants</title><style>.edge>path:hover{stroke-width:8}</style>
<path fill="none" stroke="black" d="M512.05,-336.41C523.77,-326.76 539.25,-314 552.38,-303.19"/>
<polygon fill="#ce3ba3" stroke="black" points="554.36,-306.1 559.85,-297.04 549.91,-300.7 554.36,-306.1"/>
</g>
<!-- pygame -->
<g id="node17" class="node">
<title>pygame</title><style>.edge>path:hover{stroke-width:8}</style>
<ellipse fill="#c0406d" stroke="black" cx="1180.02" cy="-208.25" rx="30.37" ry="18"/>
<text xml:space="preserve" text-anchor="middle" x="1180.02" y="-204.75" font-family="Helvetica,sans-Serif" font-size="10.00" fill="#ffffff">pygame</text>
</g>
<!-- pygame&#45;&gt;alarm_player -->
<g id="edge32" class="edge">
<title>pygame&#45;&gt;alarm_player</title><style>.edge>path:hover{stroke-width:8}</style>
<path fill="none" stroke="black" d="M1180.02,-189.95C1180.02,-182.66 1180.02,-173.98 1180.02,-165.79"/>
<polygon fill="#c0406d" stroke="black" points="1183.52,-165.87 1180.02,-155.87 1176.52,-165.87 1183.52,-165.87"/>
</g>
</g>
</svg>
