<?xml version="1.0" encoding="UTF-8" standalone="no"?>
<!DOCTYPE svg PUBLIC "-//W3C//DTD SVG 1.1//EN"
 "http://www.w3.org/Graphics/SVG/1.1/DTD/svg11.dtd">
<!-- Generated by graphviz version 14.1.3 (20260303.0454)
 -->
<!-- Title: G Pages: 1 -->
<svg width="962pt" height="585pt"
 viewBox="0.00 0.00 962.00 585.00" xmlns="http://www.w3.org/2000/svg" xmlns:xlink="http://www.w3.org/1999/xlink">
<g id="graph0" class="graph" transform="scale(1 1) rotate(0) translate(4 581)">
<title>G</title><style>.edge>path:hover{stroke-width:8}</style>
<polygon fill="white" stroke="none" points="-4,4 -4,-581 958.15,-581 958.15,4 -4,4"/>
<!-- alarm_config_manager -->
<g id="node1" class="node">
<title>alarm_config_manager</title><style>.edge>path:hover{stroke-width:8}</style>
<ellipse fill="#c04040" stroke="black" cx="83.9" cy="-487" rx="68.7" ry="18"/>
<text xml:space="preserve" text-anchor="middle" x="83.9" y="-483.5" font-family="Helvetica,sans-Serif" font-size="10.00" fill="#ffffff">alarm_config_manager</text>
</g>
<!-- gui -->
<g id="node8" class="node">
<title>gui</title><style>.edge>path:hover{stroke-width:8}</style>
<polygon fill="blue" stroke="black" points="491.9,-217 437.9,-217 437.9,-181 491.9,-181 491.9,-217"/>
<text xml:space="preserve" text-anchor="middle" x="464.9" y="-195.5" font-family="Helvetica,sans-Serif" font-size="10.00" fill="white">gui</text>
</g>
<!-- alarm_config_manager&#45;&gt;gui -->
<g id="edge1" class="edge">
<title>alarm_config_manager&#45;&gt;gui</title><style>.edge>path:hover{stroke-width:8}</style>
<path fill="none" stroke="black" d="M133.84,-474.32C169.28,-465.18 217.53,-451.02 257.9,-433 324.54,-403.25 366.32,-410.72 395.9,-344"/>
<path fill="none" stroke="black" d="M395.9,-342C411.14,-302.14 412.55,-291.03 431.9,-253 436.37,-244.21 441.84,-234.97 447.02,-226.71"/>
<polygon fill="#c04040" stroke="black" points="449.84,-228.8 452.3,-218.5 443.95,-225.02 449.84,-228.8"/>
</g>
<!-- gui_py -->
<g id="node9" class="node">
<title>gui_py</title><style>.edge>path:hover{stroke-width:8}</style>
<ellipse fill="#35634b" stroke="black" cx="444.9" cy="-18" rx="27" ry="18"/>
<text xml:space="preserve" text-anchor="middle" x="444.9" y="-14.5" font-family="Helvetica,sans-Serif" font-size="10.00" fill="#ffffff">gui.py</text>
</g>
<!-- alarm_config_manager&#45;&gt;gui_py -->
<g id="edge2" class="edge">
<title>alarm_config_manager&#45;&gt;gui_py</title><style>.edge>path:hover{stroke-width:8}</style>
<path fill="none" stroke="black" d="M134.44,-474.41C182.85,-461.81 248.01,-440.21 243.9,-416"/>
<path fill="none" stroke="black" d="M378.9,-126C388.18,-118.93 389.86,-116.37 398.9,-109 419.02,-92.59 446.37,-98.92 444.9,-73"/>
<path fill="none" stroke="black" d="M243.9,-414C234.48,-358.52 159.25,-408.4 128.9,-361 119.57,-346.42 125.5,-272.57 134.9,-253 149.75,-222.11 164.08,-221.33 190.9,-200"/>
<path fill="none" stroke="black" d="M190.9,-198C199.03,-190.1 200.05,-186.6 209.9,-181 278.34,-142.1 316.29,-175.71 378.9,-128"/>
<path fill="none" stroke="black" d="M444.9,-72C444.45,-64.07 444.31,-55.46 444.31,-47.53"/>
<polygon fill="#c04040" stroke="black" points="447.81,-47.74 444.4,-37.71 440.81,-47.68 447.81,-47.74"/>
</g>
<!-- alarm_json_model -->
<g id="node2" class="node">
<title>alarm_json_model</title><style>.edge>path:hover{stroke-width:8}</style>
<ellipse fill="#c06d40" stroke="black" cx="194.9" cy="-343" rx="56.98" ry="18"/>
<text xml:space="preserve" text-anchor="middle" x="194.9" y="-339.5" font-family="Helvetica,sans-Serif" font-size="10.00" fill="#000000">alarm_json_model</text>
</g>
<!-- alarm_manager_temp -->
<g id="node3" class="node">
<title>alarm_manager_temp</title><style>.edge>path:hover{stroke-width:8}</style>
<ellipse fill="#967d40" stroke="black" cx="284.9" cy="-199" rx="66" ry="18"/>
<text xml:space="preserve" text-anchor="middle" x="284.9" y="-195.5" font-family="Helvetica,sans-Serif" font-size="10.00" fill="#ffffff">alarm_manager_temp</text>
</g>
<!-- alarm_json_model&#45;&gt;alarm_manager_temp -->
<g id="edge3" class="edge">
<title>alarm_json_model&#45;&gt;alarm_manager_temp</title><style>.edge>path:hover{stroke-width:8}</style>
<path fill="none" stroke="black" d="M265.9,-270C270.36,-256.44 274.59,-241.17 277.93,-228.36"/>
<polygon fill="#c06d40" stroke="black" points="281.26,-229.43 280.34,-218.88 274.48,-227.7 281.26,-229.43"/>
<path fill="none" stroke="black" d="M220.04,-326.61C237.22,-314.34 258.23,-295.35 265.9,-272"/>
</g>
<!-- alarm_storage -->
<g id="node5" class="node">
<title>alarm_storage</title><style>.edge>path:hover{stroke-width:8}</style>
<ellipse fill="#87c431" stroke="black" cx="190.9" cy="-271" rx="46.6" ry="18"/>
<text xml:space="preserve" text-anchor="middle" x="190.9" y="-267.5" font-family="Helvetica,sans-Serif" font-size="10.00" fill="#000000">alarm_storage</text>
</g>
<!-- alarm_json_model&#45;&gt;alarm_storage -->
<g id="edge4" class="edge">
<title>alarm_json_model&#45;&gt;alarm_storage</title><style>.edge>path:hover{stroke-width:8}</style>
<path fill="none" stroke="black" d="M193.91,-324.7C193.5,-317.41 193,-308.73 192.53,-300.54"/>
<polygon fill="#c06d40" stroke="black" points="196.03,-300.4 191.97,-290.62 189.04,-300.8 196.03,-300.4"/>
</g>
<!-- gui_controller -->
<g id="node10" class="node">
<title>gui_controller</title><style>.edge>path:hover{stroke-width:8}</style>
<polygon fill="blue" stroke="black" points="481.78,-145 408.03,-145 408.03,-109 481.78,-109 481.78,-145"/>
<text xml:space="preserve" text-anchor="middle" x="444.9" y="-123.5" font-family="Helvetica,sans-Serif" font-size="10.00" fill="white">gui_controller</text>
</g>
<!-- alarm_manager_temp&#45;&gt;gui_controller -->
<g id="edge5" class="edge">
<title>alarm_manager_temp&#45;&gt;gui_controller</title><style>.edge>path:hover{stroke-width:8}</style>
<path fill="none" stroke="black" d="M318.83,-183.15C341.63,-173.18 371.99,-159.9 397.21,-148.86"/>
<polygon fill="#967d40" stroke="black" points="398.52,-152.11 406.28,-144.9 395.72,-145.7 398.52,-152.11"/>
</g>
<!-- alarm_player -->
<g id="node4" class="node">
<title>alarm_player</title><style>.edge>path:hover{stroke-width:8}</style>
<ellipse fill="#c3cc33" stroke="black" cx="336.9" cy="-271" rx="43" ry="18"/>
<text xml:space="preserve" text-anchor="middle" x="336.9" y="-267.5" font-family="Helvetica,sans-Serif" font-size="10.00" fill="#000000">alarm_player</text>
</g>
<!-- alarm_player&#45;&gt;alarm_manager_temp -->
<g id="edge6" class="edge">
<title>alarm_player&#45;&gt;alarm_manager_temp</title><style>.edge>path:hover{stroke-width:8}</style>
<path fill="none" stroke="black" d="M324.58,-253.41C318.52,-245.25 311.07,-235.22 304.26,-226.07"/>
<polygon fill="#c3cc33" stroke="black" points="307.17,-224.11 298.4,-218.17 301.55,-228.29 307.17,-224.11"/>
</g>
<!-- alarm_player&#45;&gt;gui -->
<g id="edge7" class="edge">
<title>alarm_player&#45;&gt;gui</title><style>.edge>path:hover{stroke-width:8}</style>
<path fill="none" stroke="black" d="M362.19,-256.17C380.85,-245.97 406.54,-231.92 427.56,-220.42"/>
<polygon fill="#c3cc33" stroke="black" points="429.03,-223.61 436.12,-215.74 425.67,-217.47 429.03,-223.61"/>
</g>
<!-- alarm_player&#45;&gt;gui_py -->
<g id="edge8" class="edge">
<title>alarm_player&#45;&gt;gui_py</title><style>.edge>path:hover{stroke-width:8}</style>
<path fill="none" stroke="black" d="M345.24,-253.15C350.06,-242.89 355.93,-229.42 359.9,-217 372.24,-178.48 347.25,-153.18 378.9,-128"/>
</g>
<!-- alarm_storage&#45;&gt;alarm_manager_temp -->
<g id="edge9" class="edge">
<title>alarm_storage&#45;&gt;alarm_manager_temp</title><style>.edge>path:hover{stroke-width:8}</style>
<path fill="none" stroke="black" d="M211.76,-254.46C224.16,-245.24 240.1,-233.36 253.94,-223.05"/>
<polygon fill="#87c431" stroke="black" points="255.97,-225.91 261.9,-217.13 251.79,-220.29 255.97,-225.91"/>
</g>
<!-- alarm_storage&#45;&gt;gui -->
<g id="edge10" class="edge">
<title>alarm_storage&#45;&gt;gui</title><style>.edge>path:hover{stroke-width:8}</style>
<path fill="none" stroke="black" d="M229,-260.27C281.09,-246.96 374.01,-223.22 426.34,-209.85"/>
<polygon fill="#87c431" stroke="black" points="427.19,-213.25 436.01,-207.38 425.46,-206.46 427.19,-213.25"/>
</g>
<!-- alarm_storage&#45;&gt;gui_py -->
<g id="edge11" class="edge">
<title>alarm_storage&#45;&gt;gui_py</title><style>.edge>path:hover{stroke-width:8}</style>
<path fill="none" stroke="black" d="M184.48,-252.96C179.49,-236.42 175.68,-212.1 190.9,-200"/>
</g>
<!-- constants -->
<g id="node6" class="node">
<title>constants</title><style>.edge>path:hover{stroke-width:8}</style>
<ellipse fill="#43f30c" stroke="black" cx="243.9" cy="-487" rx="35.33" ry="18"/>
<text xml:space="preserve" text-anchor="middle" x="243.9" y="-483.5" font-family="Helvetica,sans-Serif" font-size="10.00" fill="#000000">constants</text>
</g>
<!-- constants&#45;&gt;alarm_json_model -->
<g id="edge12" class="edge">
<title>constants&#45;&gt;alarm_json_model</title><style>.edge>path:hover{stroke-width:8}</style>
<path fill="none" stroke="black" d="M252.08,-469.13C259.83,-450.61 268.79,-420.4 257.9,-397 252.16,-384.67 241.99,-374.19 231.47,-365.88"/>
<polygon fill="#43f30c" stroke="black" points="233.6,-363.1 223.46,-360.04 229.48,-368.76 233.6,-363.1"/>
</g>
<!-- constants&#45;&gt;alarm_manager_temp -->
<g id="edge13" class="edge">
<title>constants&#45;&gt;alarm_manager_temp</title><style>.edge>path:hover{stroke-width:8}</style>
<path fill="none" stroke="black" d="M395.9,-414C433.26,-366.78 312,-394.95 279.9,-344"/>
<path fill="none" stroke="black" d="M276.91,-479.93C311.94,-471.7 366.25,-453.48 395.9,-416"/>
</g>
<!-- constants&#45;&gt;gui -->
<g id="edge14" class="edge">
<title>constants&#45;&gt;gui</title><style>.edge>path:hover{stroke-width:8}</style>
<path fill="none" stroke="black" d="M395.9,-414C415.21,-389.6 383.29,-372.44 395.9,-344"/>
</g>
<!-- constants&#45;&gt;gui_py -->
<g id="edge15" class="edge">
<title>constants&#45;&gt;gui_py</title><style>.edge>path:hover{stroke-width:8}</style>
<path fill="none" stroke="black" d="M245.51,-468.6C246.44,-454.36 246.91,-433.73 243.9,-416"/>
</g>
<!-- json_editor -->
<g id="node12" class="node">
<title>json_editor</title><style>.edge>path:hover{stroke-width:8}</style>
<ellipse fill="#3a72b0" stroke="black" cx="549.9" cy="-271" rx="38.03" ry="18"/>
<text xml:space="preserve" text-anchor="middle" x="549.9" y="-267.5" font-family="Helvetica,sans-Serif" font-size="10.00" fill="#ffffff">json_editor</text>
</g>
<!-- constants&#45;&gt;json_editor -->
<g id="edge16" class="edge">
<title>constants&#45;&gt;json_editor</title><style>.edge>path:hover{stroke-width:8}</style>
<path fill="none" stroke="black" d="M395.9,-414C428.21,-373.92 461.69,-396.57 498.9,-361 516.98,-343.72 530.57,-318.61 539.16,-299.47"/>
<polygon fill="#43f30c" stroke="black" points="542.33,-300.95 543.04,-290.38 535.89,-298.21 542.33,-300.95"/>
</g>
<!-- utils_utils -->
<g id="node16" class="node">
<title>utils_utils</title><style>.edge>path:hover{stroke-width:8}</style>
<ellipse fill="#853db8" stroke="black" cx="456.9" cy="-343" rx="33.07" ry="18"/>
<text xml:space="preserve" text-anchor="middle" x="456.9" y="-339.5" font-family="Helvetica,sans-Serif" font-size="10.00" fill="#ffffff">utils.utils</text>
</g>
<!-- constants&#45;&gt;utils_utils -->
<g id="edge17" class="edge">
<title>constants&#45;&gt;utils_utils</title><style>.edge>path:hover{stroke-width:8}</style>
<path fill="none" stroke="black" d="M395.9,-414C408.48,-398.4 423.22,-381.44 435.07,-368.13"/>
<polygon fill="#43f30c" stroke="black" points="437.67,-370.47 441.73,-360.68 432.46,-365.8 437.67,-370.47"/>
</g>
<!-- env_paths -->
<g id="node7" class="node">
<title>env_paths</title><style>.edge>path:hover{stroke-width:8}</style>
<ellipse fill="#16f330" stroke="black" cx="180.9" cy="-559" rx="36.68" ry="18"/>
<text xml:space="preserve" text-anchor="middle" x="180.9" y="-555.5" font-family="Helvetica,sans-Serif" font-size="10.00" fill="#000000">env_paths</text>
</g>
<!-- env_paths&#45;&gt;alarm_config_manager -->
<g id="edge18" class="edge">
<title>env_paths&#45;&gt;alarm_config_manager</title><style>.edge>path:hover{stroke-width:8}</style>
<path fill="none" stroke="black" d="M160.8,-543.5C147.88,-534.17 130.79,-521.84 116.01,-511.17"/>
<polygon fill="#16f330" stroke="black" points="118.08,-508.35 107.92,-505.33 113.98,-514.02 118.08,-508.35"/>
</g>
<!-- env_paths&#45;&gt;alarm_manager_temp -->
<g id="edge19" class="edge">
<title>env_paths&#45;&gt;alarm_manager_temp</title><style>.edge>path:hover{stroke-width:8}</style>
<path fill="none" stroke="black" d="M279.9,-342C262.99,-315.16 256,-302.14 265.9,-272"/>
<path fill="none" stroke="black" d="M180.7,-540.69C181.31,-521.51 184.82,-490.45 199.9,-469 217.35,-444.18 240.06,-457.54 257.9,-433 281.87,-400.05 301.62,-378.48 279.9,-344"/>
</g>
<!-- env_paths&#45;&gt;alarm_storage -->
<g id="edge20" class="edge">
<title>env_paths&#45;&gt;alarm_storage</title><style>.edge>path:hover{stroke-width:8}</style>
<path fill="none" stroke="black" d="M143.98,-558.69C102.73,-557.21 37.59,-547.7 5.9,-505 -3.63,-492.15 0.36,-484.01 5.9,-469 34.95,-390.26 113.73,-325.38 158.56,-293.43"/>
<polygon fill="#16f330" stroke="black" points="160.41,-296.4 166.6,-287.8 156.4,-290.66 160.41,-296.4"/>
</g>
<!-- env_paths&#45;&gt;constants -->
<g id="edge21" class="edge">
<title>env_paths&#45;&gt;constants</title><style>.edge>path:hover{stroke-width:8}</style>
<path fill="none" stroke="black" d="M195.2,-542.12C203.17,-533.26 213.27,-522.04 222.2,-512.12"/>
<polygon fill="#16f330" stroke="black" points="224.56,-514.72 228.65,-504.95 219.36,-510.04 224.56,-514.72"/>
</g>
<!-- env_paths&#45;&gt;utils_utils -->
<g id="edge22" class="edge">
<title>env_paths&#45;&gt;utils_utils</title><style>.edge>path:hover{stroke-width:8}</style>
<path fill="none" stroke="black" d="M671.9,-486C672.8,-484.97 546.71,-402.55 487.24,-363.76"/>
<polygon fill="#16f330" stroke="black" points="489.18,-360.85 478.89,-358.32 485.35,-366.72 489.18,-360.85"/>
<path fill="none" stroke="black" d="M217.28,-555.63C326.09,-548.17 643.32,-523.51 671.9,-488"/>
</g>
<!-- window_position_store -->
<g id="node19" class="node">
<title>window_position_store</title><style>.edge>path:hover{stroke-width:8}</style>
<ellipse fill="#b03a64" stroke="black" cx="750.9" cy="-271" rx="69.15" ry="18"/>
<text xml:space="preserve" text-anchor="middle" x="750.9" y="-267.5" font-family="Helvetica,sans-Serif" font-size="10.00" fill="#ffffff">window_position_store</text>
</g>
<!-- env_paths&#45;&gt;window_position_store -->
<g id="edge23" class="edge">
<title>env_paths&#45;&gt;window_position_store</title><style>.edge>path:hover{stroke-width:8}</style>
<path fill="none" stroke="black" d="M671.9,-486C698.18,-453.35 718.09,-460.29 749.9,-433 783.08,-404.54 800.9,-401.68 816.9,-361 822.76,-346.11 823.82,-339.43 816.9,-325 810.95,-312.58 800.5,-302.15 789.65,-293.91"/>
<polygon fill="#16f330" stroke="black" points="791.97,-291.26 781.78,-288.39 787.95,-296.99 791.97,-291.26"/>
</g>
<!-- gui&#45;&gt;gui_controller -->
<g id="edge24" class="edge">
<title>gui&#45;&gt;gui_controller</title><style>.edge>path:hover{stroke-width:8}</style>
<path fill="none" stroke="black" d="M456.85,-169.81C455.54,-165.24 454.19,-160.5 452.88,-155.93"/>
<polygon fill="blue" stroke="black" points="453.43,-170.59 459.54,-179.24 460.16,-168.66 453.43,-170.59"/>
<polygon fill="blue" stroke="black" points="456.32,-155.21 450.2,-146.56 449.59,-157.14 456.32,-155.21"/>
</g>
<!-- gui_controller&#45;&gt;gui_py -->
<g id="edge26" class="edge">
<title>gui_controller&#45;&gt;gui_py</title><style>.edge>path:hover{stroke-width:8}</style>
<path fill="none" stroke="black" d="M444.88,-108.81C444.87,-98.44 444.87,-84.96 444.9,-73"/>
</g>
<!-- jpholiday -->
<g id="node11" class="node">
<title>jpholiday</title><style>.edge>path:hover{stroke-width:8}</style>
<ellipse fill="#40a9c0" stroke="black" cx="707.9" cy="-415" rx="32.62" ry="18"/>
<text xml:space="preserve" text-anchor="middle" x="707.9" y="-411.5" font-family="Helvetica,sans-Serif" font-size="10.00" fill="#000000">jpholiday</text>
</g>
<!-- mini_calendar -->
<g id="node13" class="node">
<title>mini_calendar</title><style>.edge>path:hover{stroke-width:8}</style>
<ellipse fill="#3142c4" stroke="black" cx="629.9" cy="-343" rx="45.7" ry="18"/>
<text xml:space="preserve" text-anchor="middle" x="629.9" y="-339.5" font-family="Helvetica,sans-Serif" font-size="10.00" fill="#ffffff">mini_calendar</text>
</g>
<!-- jpholiday&#45;&gt;mini_calendar -->
<g id="edge27" class="edge">
<title>jpholiday&#45;&gt;mini_calendar</title><style>.edge>path:hover{stroke-width:8}</style>
<path fill="none" stroke="black" d="M691.36,-399.15C681.17,-390.01 667.87,-378.08 656.26,-367.65"/>
<polygon fill="#40a9c0" stroke="black" points="658.68,-365.13 648.9,-361.05 654.01,-370.34 658.68,-365.13"/>
</g>
<!-- json_editor&#45;&gt;gui -->
<g id="edge28" class="edge">
<title>json_editor&#45;&gt;gui</title><style>.edge>path:hover{stroke-width:8}</style>
<path fill="none" stroke="black" d="M531.46,-254.81C520.69,-245.95 506.86,-234.55 494.59,-224.45"/>
<polygon fill="#3a72b0" stroke="black" points="497.12,-222 487.17,-218.34 492.67,-227.4 497.12,-222"/>
</g>
<!-- json_editor&#45;&gt;gui_py -->
<g id="edge29" class="edge">
<title>json_editor&#45;&gt;gui_py</title><style>.edge>path:hover{stroke-width:8}</style>
<path fill="none" stroke="black" d="M577.51,-258.34C611.22,-243.22 662.77,-216.79 653.9,-200"/>
</g>
<!-- mini_calendar&#45;&gt;gui -->
<g id="edge30" class="edge">
<title>mini_calendar&#45;&gt;gui</title><style>.edge>path:hover{stroke-width:8}</style>
<path fill="none" stroke="black" d="M641.76,-325.41C650.36,-311.28 659.58,-290.42 653.9,-272"/>
<path fill="none" stroke="black" d="M653.9,-270C644.68,-240.08 555.98,-217.78 503.44,-207.07"/>
<polygon fill="#3142c4" stroke="black" points="504.16,-203.65 493.67,-205.14 502.8,-210.51 504.16,-203.65"/>
</g>
<!-- mini_calendar&#45;&gt;gui_py -->
<g id="edge31" class="edge">
<title>mini_calendar&#45;&gt;gui_py</title><style>.edge>path:hover{stroke-width:8}</style>
<path fill="none" stroke="black" d="M653.9,-270C644.74,-240.27 667.58,-227.94 653.9,-200"/>
</g>
<!-- mini_calendar&#45;&gt;json_editor -->
<g id="edge32" class="edge">
<title>mini_calendar&#45;&gt;json_editor</title><style>.edge>path:hover{stroke-width:8}</style>
<path fill="none" stroke="black" d="M611.75,-326.12C601.17,-316.86 587.65,-305.03 575.95,-294.79"/>
<polygon fill="#3142c4" stroke="black" points="578.4,-292.29 568.57,-288.34 573.79,-297.56 578.4,-292.29"/>
</g>
<!-- pygame -->
<g id="node14" class="node">
<title>pygame</title><style>.edge>path:hover{stroke-width:8}</style>
<ellipse fill="#5e40c0" stroke="black" cx="337.9" cy="-343" rx="30.37" ry="18"/>
<text xml:space="preserve" text-anchor="middle" x="337.9" y="-339.5" font-family="Helvetica,sans-Serif" font-size="10.00" fill="#ffffff">pygame</text>
</g>
<!-- pygame&#45;&gt;alarm_player -->
<g id="edge33" class="edge">
<title>pygame&#45;&gt;alarm_player</title><style>.edge>path:hover{stroke-width:8}</style>
<path fill="none" stroke="black" d="M337.65,-324.7C337.55,-317.41 337.43,-308.73 337.31,-300.54"/>
<polygon fill="#5e40c0" stroke="black" points="340.81,-300.57 337.17,-290.62 333.81,-300.67 340.81,-300.57"/>
</g>
<!-- utils -->
<g id="node15" class="node">
<title>utils</title><style>.edge>path:hover{stroke-width:8}</style>
<ellipse fill="#942fdb" stroke="black" cx="629.9" cy="-415" rx="27" ry="18"/>
<text xml:space="preserve" text-anchor="middle" x="629.9" y="-411.5" font-family="Helvetica,sans-Serif" font-size="10.00" fill="#ffffff">utils</text>
</g>
<!-- utils&#45;&gt;gui -->
<g id="edge34" class="edge">
<title>utils&#45;&gt;gui</title><style>.edge>path:hover{stroke-width:8}</style>
<path fill="none" stroke="black" d="M555.9,-342C541.68,-311.88 521.56,-316.6 502.9,-289 490.18,-270.19 480.3,-246.43 473.81,-228.19"/>
<polygon fill="#942fdb" stroke="black" points="477.15,-227.14 470.61,-218.81 470.52,-229.4 477.15,-227.14"/>
<path fill="none" stroke="black" d="M610.33,-402.07C592.47,-389.94 567.2,-369.36 555.9,-344"/>
</g>
<!-- utils&#45;&gt;gui_py -->
<g id="edge35" class="edge">
<title>utils&#45;&gt;gui_py</title><style>.edge>path:hover{stroke-width:8}</style>
<path fill="none" stroke="black" d="M555.9,-342C543.78,-314.8 579.74,-313.34 596.9,-289 623.97,-250.61 674.56,-242.19 653.9,-200"/>
</g>
<!-- utils&#45;&gt;json_editor -->
<g id="edge36" class="edge">
<title>utils&#45;&gt;json_editor</title><style>.edge>path:hover{stroke-width:8}</style>
<path fill="none" stroke="black" d="M555.9,-342C549.88,-329.25 548.07,-313.74 547.9,-300.56"/>
<polygon fill="#942fdb" stroke="black" points="551.4,-300.84 548.1,-290.78 544.4,-300.7 551.4,-300.84"/>
</g>
<!-- utils&#45;&gt;mini_calendar -->
<g id="edge37" class="edge">
<title>utils&#45;&gt;mini_calendar</title><style>.edge>path:hover{stroke-width:8}</style>
<path fill="none" stroke="black" d="M629.9,-396.7C629.9,-389.41 629.9,-380.73 629.9,-372.54"/>
<polygon fill="#942fdb" stroke="black" points="633.4,-372.62 629.9,-362.62 626.4,-372.62 633.4,-372.62"/>
</g>
<!-- utils_utils&#45;&gt;gui -->
<g id="edge38" class="edge">
<title>utils_utils&#45;&gt;gui</title><style>.edge>path:hover{stroke-width:8}</style>
<path fill="none" stroke="black" d="M445.9,-270C451.89,-256.84 456.33,-241.4 459.4,-228.37"/>
<polygon fill="#853db8" stroke="black" points="462.8,-229.22 461.53,-218.7 455.96,-227.72 462.8,-229.22"/>
<path fill="none" stroke="black" d="M449.1,-325.16C443.49,-310.51 438.16,-289.02 445.9,-272"/>
</g>
<!-- utils_utils&#45;&gt;gui_py -->
<g id="edge39" class="edge">
<title>utils_utils&#45;&gt;gui_py</title><style>.edge>path:hover{stroke-width:8}</style>
<path fill="none" stroke="black" d="M653.9,-198C647.59,-186.04 444.86,-86.53 444.9,-73"/>
<path fill="none" stroke="black" d="M445.9,-270C486.29,-181.22 696.8,-287.6 653.9,-200"/>
</g>
<!-- window_geometry -->
<g id="node17" class="node">
<title>window_geometry</title><style>.edge>path:hover{stroke-width:8}</style>
<ellipse fill="#b053b6" stroke="black" cx="750.9" cy="-343" rx="56.98" ry="18"/>
<text xml:space="preserve" text-anchor="middle" x="750.9" y="-339.5" font-family="Helvetica,sans-Serif" font-size="10.00" fill="#ffffff">window_geometry</text>
</g>
<!-- window_geometry&#45;&gt;window_position_store -->
<g id="edge40" class="edge">
<title>window_geometry&#45;&gt;window_position_store</title><style>.edge>path:hover{stroke-width:8}</style>
<path fill="none" stroke="black" d="M750.9,-324.7C750.9,-317.41 750.9,-308.73 750.9,-300.54"/>
<polygon fill="#b053b6" stroke="black" points="754.4,-300.62 750.9,-290.62 747.4,-300.62 754.4,-300.62"/>
</g>
<!-- window_keys -->
<g id="node18" class="node">
<title>window_keys</title><style>.edge>path:hover{stroke-width:8}</style>
<ellipse fill="#ce3ba3" stroke="black" cx="908.9" cy="-343" rx="45.25" ry="18"/>
<text xml:space="preserve" text-anchor="middle" x="908.9" y="-339.5" font-family="Helvetica,sans-Serif" font-size="10.00" fill="#ffffff">window_keys</text>
</g>
<!-- window_keys&#45;&gt;gui -->
<g id="edge41" class="edge">
<title>window_keys&#45;&gt;gui</title><style>.edge>path:hover{stroke-width:8}</style>
<path fill="none" stroke="black" d="M898.44,-324.99C887.7,-308.96 869.53,-285.45 847.9,-272"/>
<path fill="none" stroke="black" d="M847.9,-270C838.28,-264.02 839.17,-257.8 828.9,-253 799.76,-239.38 591,-214.37 503.42,-204.33"/>
<polygon fill="#ce3ba3" stroke="black" points="503.98,-200.87 493.65,-203.22 503.19,-207.83 503.98,-200.87"/>
</g>
<!-- window_keys&#45;&gt;gui_py -->
<g id="edge42" class="edge">
<title>window_keys&#45;&gt;gui_py</title><style>.edge>path:hover{stroke-width:8}</style>
<path fill="none" stroke="black" d="M847.9,-270C838.28,-264.02 838.78,-258.55 828.9,-253 758.06,-213.19 689.64,-272.99 653.9,-200"/>
</g>
<!-- window_keys&#45;&gt;window_position_store -->
<g id="edge43" class="edge">
<title>window_keys&#45;&gt;window_position_store</title><style>.edge>path:hover{stroke-width:8}</style>
<path fill="none" stroke="black" d="M879.55,-329C855.92,-318.53 822.31,-303.64 795.37,-291.7"/>
<polygon fill="#ce3ba3" stroke="black" points="796.98,-288.59 786.42,-287.74 794.15,-294.99 796.98,-288.59"/>
</g>
<!-- window_position_store&#45;&gt;gui -->
<g id="edge44" class="edge">
<title>window_position_store&#45;&gt;gui</title><style>.edge>path:hover{stroke-width:8}</style>
<path fill="none" stroke="black" d="M701.74,-257.97C645.46,-244.19 554.48,-221.92 503.21,-209.38"/>
<polygon fill="#b03a64" stroke="black" points="504.3,-206.04 493.76,-207.06 502.64,-212.84 504.3,-206.04"/>
</g>
<!-- window_position_store&#45;&gt;gui_py -->
<g id="edge45" class="edge">
<title>window_position_store&#45;&gt;gui_py</title><style>.edge>path:hover{stroke-width:8}</style>
<path fill="none" stroke="black" d="M716.12,-255C694.03,-243.44 667.18,-225.16 653.9,-200"/>
</g>
</g>
</svg>
