<?xml version="1.0" encoding="UTF-8" standalone="no"?>
<!DOCTYPE svg PUBLIC "-//W3C//DTD SVG 1.1//EN"
 "http://www.w3.org/Graphics/SVG/1.1/DTD/svg11.dtd">
<!-- Generated by graphviz version 14.1.3 (20260303.0454)
 -->
<!-- Title: G Pages: 1 -->
<svg width="472pt" height="1111pt"
 viewBox="0.00 0.00 472.00 1111.00" xmlns="http://www.w3.org/2000/svg" xmlns:xlink="http://www.w3.org/1999/xlink">
<g id="graph0" class="graph" transform="scale(1 1) rotate(0) translate(4 1106.5)">
<title>G</title>
<polygon fill="white" stroke="none" points="-4,4 -4,-1106.5 468,-1106.5 468,4 -4,4"/>
<g id="clust1" class="cluster">
<title>cluster_entry</title>
<polygon fill="#b0e2ff" stroke="black" points="8,-917 8,-1094.5 456,-1094.5 456,-917 8,-917"/>
<text xml:space="preserve" text-anchor="middle" x="232" y="-1077.2" font-family="Times New Roman,serif" font-size="14.00">entry / dispatch</text>
</g>
<g id="clust2" class="cluster">
<title>cluster_engine</title>
<polygon fill="#ffec8b" stroke="black" points="147,-8 147,-892.5 277,-892.5 277,-8 147,-8"/>
<text xml:space="preserve" text-anchor="middle" x="212" y="-875.2" font-family="Times New Roman,serif" font-size="14.00">engine</text>
</g>
<!-- start_cycle -->
<g id="node1" class="node">
<title>start_cycle</title>
<polygon fill="aliceblue" stroke="black" points="244.38,-1062 179.62,-1062 179.62,-1026 244.38,-1026 244.38,-1062"/>
<text xml:space="preserve" text-anchor="middle" x="212" y="-1040.3" font-family="Times New Roman,serif" font-size="11.00">start_cycle</text>
</g>
<!-- _start_startup_cycle -->
<g id="node2" class="node">
<title>_start_startup_cycle</title>
<polygon fill="aliceblue" stroke="black" points="121.62,-961 16.38,-961 16.38,-925 121.62,-925 121.62,-961"/>
<text xml:space="preserve" text-anchor="middle" x="69" y="-939.3" font-family="Times New Roman,serif" font-size="11.00">_start_startup_cycle</text>
</g>
<!-- start_cycle&#45;&gt;_start_startup_cycle -->
<g id="edge1" class="edge">
<title>start_cycle&#45;&gt;_start_startup_cycle</title>
<path fill="none" stroke="#00688b" stroke-width="1.6" d="M186.76,-1025.53C163.79,-1009.62 129.65,-985.99 104.03,-968.25"/>
<polygon fill="#00688b" stroke="#00688b" stroke-width="1.6" points="106.19,-965.49 95.98,-962.68 102.2,-971.24 106.19,-965.49"/>
</g>
<!-- _start_running_cycle -->
<g id="node3" class="node">
<title>_start_running_cycle</title>
<polygon fill="aliceblue" stroke="black" points="266.12,-961 157.88,-961 157.88,-925 266.12,-925 266.12,-961"/>
<text xml:space="preserve" text-anchor="middle" x="212" y="-939.3" font-family="Times New Roman,serif" font-size="11.00">_start_running_cycle</text>
</g>
<!-- start_cycle&#45;&gt;_start_running_cycle -->
<g id="edge2" class="edge">
<title>start_cycle&#45;&gt;_start_running_cycle</title>
<path fill="none" stroke="#00688b" stroke-width="1.6" d="M212,-1025.76C212,-1011.43 212,-990.73 212,-973.75"/>
<polygon fill="#00688b" stroke="#00688b" stroke-width="1.6" points="215.5,-973.8 212,-963.8 208.5,-973.8 215.5,-973.8"/>
</g>
<!-- _start_config_changed_cycle -->
<g id="node4" class="node">
<title>_start_config_changed_cycle</title>
<polygon fill="aliceblue" stroke="black" points="447.5,-961 302.5,-961 302.5,-925 447.5,-925 447.5,-961"/>
<text xml:space="preserve" text-anchor="middle" x="375" y="-939.3" font-family="Times New Roman,serif" font-size="11.00">_start_config_changed_cycle</text>
</g>
<!-- start_cycle&#45;&gt;_start_config_changed_cycle -->
<g id="edge3" class="edge">
<title>start_cycle&#45;&gt;_start_config_changed_cycle</title>
<path fill="none" stroke="#00688b" stroke-width="1.6" d="M240.77,-1025.53C267.22,-1009.46 306.67,-985.5 335.96,-967.71"/>
<polygon fill="#00688b" stroke="#00688b" stroke-width="1.6" points="337.45,-970.9 344.18,-962.72 333.81,-964.92 337.45,-970.9"/>
</g>
<!-- run_cycle -->
<g id="node5" class="node">
<title>run_cycle</title>
<polygon fill="white" stroke="black" points="241.75,-860 182.25,-860 182.25,-824 241.75,-824 241.75,-860"/>
<text xml:space="preserve" text-anchor="middle" x="212" y="-838.3" font-family="Times New Roman,serif" font-size="11.00">run_cycle</text>
</g>
<!-- _start_startup_cycle&#45;&gt;run_cycle -->
<g id="edge4" class="edge">
<title>_start_startup_cycle&#45;&gt;run_cycle</title>
<path fill="none" stroke="#53868b" stroke-width="1.6" d="M94.24,-924.53C117.21,-908.62 151.35,-884.99 176.97,-867.25"/>
<polygon fill="#53868b" stroke="#53868b" stroke-width="1.6" points="178.8,-870.24 185.02,-861.68 174.81,-864.49 178.8,-870.24"/>
</g>
<!-- _start_running_cycle&#45;&gt;run_cycle -->
<g id="edge5" class="edge">
<title>_start_running_cycle&#45;&gt;run_cycle</title>
<path fill="none" stroke="#53868b" stroke-width="1.6" d="M212,-924.76C212,-910.43 212,-889.73 212,-872.75"/>
<polygon fill="#53868b" stroke="#53868b" stroke-width="1.6" points="215.5,-872.8 212,-862.8 208.5,-872.8 215.5,-872.8"/>
</g>
<!-- _start_config_changed_cycle&#45;&gt;run_cycle -->
<g id="edge6" class="edge">
<title>_start_config_changed_cycle&#45;&gt;run_cycle</title>
<path fill="none" stroke="#53868b" stroke-width="1.6" d="M346.23,-924.53C319.78,-908.46 280.33,-884.5 251.04,-866.71"/>
<polygon fill="#53868b" stroke="#53868b" stroke-width="1.6" points="253.19,-863.92 242.82,-861.72 249.55,-869.9 253.19,-863.92"/>
</g>
<!-- _begin_cycle -->
<g id="node6" class="node">
<title>_begin_cycle</title>
<polygon fill="white" stroke="black" points="249.25,-759 174.75,-759 174.75,-723 249.25,-723 249.25,-759"/>
<text xml:space="preserve" text-anchor="middle" x="212" y="-737.3" font-family="Times New Roman,serif" font-size="11.00">_begin_cycle</text>
</g>
<!-- run_cycle&#45;&gt;_begin_cycle -->
<g id="edge7" class="edge">
<title>run_cycle&#45;&gt;_begin_cycle</title>
<path fill="none" stroke="#8b6914" stroke-width="1.6" d="M212,-823.76C212,-809.43 212,-788.73 212,-771.75"/>
<polygon fill="#8b6914" stroke="#8b6914" stroke-width="1.6" points="215.5,-771.8 212,-761.8 208.5,-771.8 215.5,-771.8"/>
</g>
<!-- _load_phase -->
<g id="node7" class="node">
<title>_load_phase</title>
<polygon fill="white" stroke="black" points="247.38,-658 176.62,-658 176.62,-622 247.38,-622 247.38,-658"/>
<text xml:space="preserve" text-anchor="middle" x="212" y="-636.3" font-family="Times New Roman,serif" font-size="11.00">_load_phase</text>
</g>
<!-- _begin_cycle&#45;&gt;_load_phase -->
<g id="edge8" class="edge">
<title>_begin_cycle&#45;&gt;_load_phase</title>
<path fill="none" stroke="#8b6914" stroke-width="1.6" d="M212,-722.76C212,-708.43 212,-687.73 212,-670.75"/>
<polygon fill="#8b6914" stroke="#8b6914" stroke-width="1.6" points="215.5,-670.8 212,-660.8 208.5,-670.8 215.5,-670.8"/>
</g>
<!-- _recalc_phase -->
<g id="node8" class="node">
<title>_recalc_phase</title>
<polygon fill="white" stroke="black" points="251.88,-557 172.12,-557 172.12,-521 251.88,-521 251.88,-557"/>
<text xml:space="preserve" text-anchor="middle" x="212" y="-535.3" font-family="Times New Roman,serif" font-size="11.00">_recalc_phase</text>
</g>
<!-- _load_phase&#45;&gt;_recalc_phase -->
<g id="edge9" class="edge">
<title>_load_phase&#45;&gt;_recalc_phase</title>
<path fill="none" stroke="#8b6914" stroke-width="1.6" d="M212,-621.76C212,-607.43 212,-586.73 212,-569.75"/>
<polygon fill="#8b6914" stroke="#8b6914" stroke-width="1.6" points="215.5,-569.8 212,-559.8 208.5,-569.8 215.5,-569.8"/>
</g>
<!-- _fire_phase -->
<g id="node9" class="node">
<title>_fire_phase</title>
<polygon fill="white" stroke="black" points="245.88,-456 178.12,-456 178.12,-420 245.88,-420 245.88,-456"/>
<text xml:space="preserve" text-anchor="middle" x="212" y="-434.3" font-family="Times New Roman,serif" font-size="11.00">_fire_phase</text>
</g>
<!-- _recalc_phase&#45;&gt;_fire_phase -->
<g id="edge10" class="edge">
<title>_recalc_phase&#45;&gt;_fire_phase</title>
<path fill="none" stroke="#8b6914" stroke-width="1.6" d="M212,-520.76C212,-506.43 212,-485.73 212,-468.75"/>
<polygon fill="#8b6914" stroke="#8b6914" stroke-width="1.6" points="215.5,-468.8 212,-458.8 208.5,-468.8 215.5,-468.8"/>
</g>
<!-- _save_phase -->
<g id="node10" class="node">
<title>_save_phase</title>
<polygon fill="white" stroke="black" points="248.12,-355 175.88,-355 175.88,-319 248.12,-319 248.12,-355"/>
<text xml:space="preserve" text-anchor="middle" x="212" y="-333.3" font-family="Times New Roman,serif" font-size="11.00">_save_phase</text>
</g>
<!-- _fire_phase&#45;&gt;_save_phase -->
<g id="edge11" class="edge">
<title>_fire_phase&#45;&gt;_save_phase</title>
<path fill="none" stroke="#8b6914" stroke-width="1.6" d="M212,-419.76C212,-405.43 212,-384.73 212,-367.75"/>
<polygon fill="#8b6914" stroke="#8b6914" stroke-width="1.6" points="215.5,-367.8 212,-357.8 208.5,-367.8 215.5,-367.8"/>
</g>
<!-- _notify_listeners -->
<g id="node11" class="node">
<title>_notify_listeners</title>
<polygon fill="white" stroke="black" points="256.75,-254 167.25,-254 167.25,-218 256.75,-218 256.75,-254"/>
<text xml:space="preserve" text-anchor="middle" x="212" y="-232.3" font-family="Times New Roman,serif" font-size="11.00">_notify_listeners</text>
</g>
<!-- _save_phase&#45;&gt;_notify_listeners -->
<g id="edge12" class="edge">
<title>_save_phase&#45;&gt;_notify_listeners</title>
<path fill="none" stroke="#8b6914" stroke-width="1.6" d="M212,-318.76C212,-304.43 212,-283.73 212,-266.75"/>
<polygon fill="#8b6914" stroke="#8b6914" stroke-width="1.6" points="215.5,-266.8 212,-256.8 208.5,-266.8 215.5,-266.8"/>
</g>
<!-- _check_invalid_states -->
<g id="node12" class="node">
<title>_check_invalid_states</title>
<polygon fill="white" stroke="black" points="268.75,-153 155.25,-153 155.25,-117 268.75,-117 268.75,-153"/>
<text xml:space="preserve" text-anchor="middle" x="212" y="-131.3" font-family="Times New Roman,serif" font-size="11.00">_check_invalid_states</text>
</g>
<!-- _notify_listeners&#45;&gt;_check_invalid_states -->
<g id="edge13" class="edge">
<title>_notify_listeners&#45;&gt;_check_invalid_states</title>
<path fill="none" stroke="#8b6914" stroke-width="1.6" d="M212,-217.76C212,-203.43 212,-182.73 212,-165.75"/>
<polygon fill="#8b6914" stroke="#8b6914" stroke-width="1.6" points="215.5,-165.8 212,-155.8 208.5,-165.8 215.5,-165.8"/>
</g>
<!-- _stop_phase -->
<g id="node13" class="node">
<title>_stop_phase</title>
<polygon fill="white" stroke="black" points="247,-52 177,-52 177,-16 247,-16 247,-52"/>
<text xml:space="preserve" text-anchor="middle" x="212" y="-30.3" font-family="Times New Roman,serif" font-size="11.00">_stop_phase</text>
</g>
<!-- _check_invalid_states&#45;&gt;_stop_phase -->
<g id="edge14" class="edge">
<title>_check_invalid_states&#45;&gt;_stop_phase</title>
<path fill="none" stroke="#8b6914" stroke-width="1.6" d="M212,-116.76C212,-102.43 212,-81.73 212,-64.75"/>
<polygon fill="#8b6914" stroke="#8b6914" stroke-width="1.6" points="215.5,-64.8 212,-54.8 208.5,-64.8 215.5,-64.8"/>
</g>
</g>
</svg>
